<?xml version="1.0" encoding="UTF-8"?>
<svg width="26px" height="32px" viewBox="0 0 26 32" version="1.1" xmlns="http://www.w3.org/2000/svg" xmlns:xlink="http://www.w3.org/1999/xlink">
    <!-- Generator: Sketch 44.1 (41455) - http://www.bohemiancoding.com/sketch -->
    <title>Fill 108</title>
    <desc>Created with Sketch.</desc>
    <defs></defs>
    <g id="Wireframes" stroke="none" stroke-width="1" fill="none" fill-rule="evenodd">
        <g id="How-it-works" transform="translate(-215.000000, -1620.000000)" fill="#9B9B9B">
            <g id="User-Journey" transform="translate(185.000000, 868.000000)">
                <g id="4" transform="translate(0.000000, 726.000000)">
                    <path d="M54,55 C54,55.553 53.553,56 53,56 C52.447,56 52,55.553 52,55 L52,45 C52,44.448 52.447,44 53,44 C53.553,44 54,44.448 54,45 L54,55 L54,55 Z M54,42 L52,42 C50.896,42 50,42.896 50,44 L50,56 C50,57.104 50.896,58 52,58 L54,58 C55.104,58 56,57.104 56,56 L56,44 C56,42.896 55.104,42 54,42 L54,42 Z M34,55 C34,55.553 33.553,56 33,56 C32.447,56 32,55.553 32,55 L32,38 C32,37.448 32.447,37 33,37 C33.553,37 34,37.448 34,38 L34,55 L34,55 Z M34,35 L32,35 C30.896,35 30,35.896 30,37 L30,56 C30,57.104 30.896,58 32,58 L34,58 C35.104,58 36,57.104 36,56 L36,37 C36,35.896 35.104,35 34,35 L34,35 Z M44,55 C44,55.553 43.553,56 43,56 C42.447,56 42,55.553 42,55 L42,29 C42,28.447 42.447,28 43,28 C43.553,28 44,28.447 44,29 L44,55 L44,55 Z M44,26 L42,26 C40.896,26 40,26.896 40,28 L40,56 C40,57.104 40.896,58 42,58 L44,58 C45.104,58 46,57.104 46,56 L46,28 C46,26.896 45.104,26 44,26 L44,26 Z" id="Fill-108"></path>
                </g>
            </g>
        </g>
    </g>
</svg>