<?xml version="1.0" encoding="UTF-8"?>
<svg width="193px" height="54px" viewBox="0 0 193 54" version="1.1" xmlns="http://www.w3.org/2000/svg" xmlns:xlink="http://www.w3.org/1999/xlink">
    <!-- Generator: Sketch 44.1 (41455) - http://www.bohemiancoding.com/sketch -->
    <title>breaktime_logo_light</title>
    <desc>Created with Sketch.</desc>
    <defs>
        <polygon id="path-1" points="0 32.593 137.952704 32.593 137.952704 0 0 0"></polygon>
    </defs>
    <g id="Wireframes" stroke="none" stroke-width="1" fill="none" fill-rule="evenodd">
        <g id="Artboard">
            <g id="Brand-/-Images-/-Logo-full">
                <g id="Brand-/-Images--/-Logo" transform="translate(0.000000, 7.000000)">
                    <g id="BTM-Logo">
                        <path d="M7.15461972,16.7077059 C9.338,16.7077059 11.1268169,15.0001176 11.1268169,12.2417059 C11.1268169,9.50982353 9.31208451,7.77635294 7.15461972,7.77635294 C4.99780282,7.77635294 3.10402817,9.53635294 3.10402817,12.2417059 C3.10402817,14.9483529 4.99780282,16.7077059 7.15461972,16.7077059 Z M7.89126761,5.01729412 C11.1792958,5.01729412 14.3623662,7.61847059 14.3623662,12.2417059 C14.3623662,16.8655882 11.2052113,19.4667647 7.89126761,19.4667647 C5.60292958,19.4667647 4.15619718,18.3104706 3.18307042,17.0234706 L3.18307042,19.1768824 L0,19.1768824 L0,0 L3.18307042,0 L3.18307042,7.61847059 C4.20867606,6.17294118 5.65540845,5.01729412 7.89126761,5.01729412 Z" id="Fill-1" fill="#FFFFFF"></path>
                        <path d="M20.1830704,19.1385703 L17,19.1385703 L17,5.2682174 L20.1830704,5.2682174 L20.1830704,8.39415858 C21.0512394,6.31839387 22.6560563,4.90004093 25.101831,5.00551152 L25.101831,8.36762916 L24.917831,8.36762916 C22.1293239,8.36762916 20.1830704,10.180688 20.1830704,13.8585703 L20.1830704,19.1385703 Z" id="Fill-3" fill="#FFFFFF"></path>
                        <path d="M37.2852113,11.2531765 C37.0746479,9.20394118 35.8643944,7.60117647 33.7600563,7.60117647 C31.8138028,7.60117647 30.4454648,9.09847059 30.156507,11.2531765 L37.2852113,11.2531765 Z M34.1805352,16.8748235 C35.7328732,16.8748235 36.8375211,16.297 37.942169,15.2196471 L39.8100282,16.8748235 C38.4948169,18.4510588 36.6800845,19.4753529 34.1280563,19.4753529 C30.1040282,19.4753529 27,16.5590588 27,12.2509412 C27,8.25794118 29.8144225,5 33.7866197,5 C38.2052113,5 40.4417183,8.46823529 40.4417183,12.4871176 C40.4417183,12.7763529 40.4151549,13.0390588 40.3892394,13.3548235 L30.1830704,13.3548235 C30.5510704,15.6137059 32.1293239,16.8748235 34.1805352,16.8748235 L34.1805352,16.8748235 Z" id="Fill-5" fill="#FFFFFF"></path>
                        <path d="M52.522,13.1962941 C51.7063099,12.8811765 50.5757465,12.645 49.3389296,12.645 C47.3401972,12.645 46.156507,13.459 46.156507,14.878 L46.156507,14.9297647 C46.156507,16.2432941 47.3401972,16.9796471 48.8394085,16.9796471 C50.9437465,16.9796471 52.522,15.7974706 52.522,14.0633529 L52.522,13.1962941 Z M52.4429577,19.0806471 L52.4429577,17.3737059 C51.4963944,18.5028235 50.049662,19.3705294 47.9453239,19.3705294 C45.3149014,19.3705294 43,17.8725882 43,15.0876471 L43,15.0352353 C43,12.0406471 45.3939437,10.5692353 48.6288451,10.5692353 C50.3120563,10.5692353 51.3907887,10.8060588 52.4695211,11.1470588 L52.4695211,10.8060588 C52.4695211,8.88817647 51.2592676,7.83735294 49.0493239,7.83735294 C47.4982817,7.83735294 46.340507,8.179 45.0784225,8.70441176 L44.2096056,6.15564706 C45.7360282,5.473 47.2345915,5 49.4970141,5 C53.6007324,5 55.5994648,7.15470588 55.5994648,10.8578235 L55.5994648,19.0806471 L52.4429577,19.0806471 Z" id="Fill-7" fill="#FFFFFF"></path>
                        <polygon id="Fill-9" fill="#FFFFFF" points="71.9940282 19.1768824 68.3114366 19.1768824 64.1293239 13.1877059 62.1830704 15.2104118 62.1830704 19.1768824 59 19.1768824 59 0 62.1830704 0 62.1830704 11.4535882 67.9434366 5.30652941 71.8100282 5.30652941 66.2867887 10.9540588"></polygon>
                        <path d="M77.9453239,14.3455882 C77.9453239,15.5801765 78.5763662,16.0790588 79.6544507,16.0790588 C80.3645352,16.0790588 80.9962254,15.9218235 81.6279155,15.6067059 L81.6279155,18.2078824 C80.8387887,18.6543529 79.9440563,18.9170588 78.7603662,18.9170588 C76.4195493,18.9170588 74.7622535,17.8921176 74.7622535,14.8451176 L74.7622535,7.54111765 L73,7.54111765 L73,4.80988235 L74.7622535,4.80988235 L74.7622535,1 L77.9453239,1 L77.9453239,4.80988235 L81.6803944,4.80988235 L81.6803944,7.54111765 L77.9453239,7.54111765 L77.9453239,14.3455882 Z" id="Fill-11" fill="#FFFFFF"></path>
                        <mask id="mask-2" fill="white">
                            <use xlink:href="#path-1"></use>
                        </mask>
                        <g id="Clip-14"></g>
                        <polygon id="Fill-13" fill="#FFFFFF" mask="url(#mask-2)" points="85 18.8703529 88.1830704 18.8703529 88.1830704 5 85 5"></polygon>
                        <path d="M108.255493,5 C111.280479,5 113.122423,6.91788235 113.122423,10.3065294 L113.122423,19.1595882 L109.939352,19.1595882 L109.939352,11.2790588 C109.939352,9.07194118 108.913746,7.89041176 107.12493,7.89041176 C105.387944,7.89041176 104.152423,9.09847059 104.152423,11.3314706 L104.152423,19.1595882 L100.969352,19.1595882 L100.969352,11.2531765 C100.969352,9.09847059 99.9171831,7.89041176 98.1549296,7.89041176 C96.3920282,7.89041176 95.1824225,9.20329412 95.1824225,11.358 L95.1824225,19.1595882 L92,19.1595882 L92,5.28923529 L95.1824225,5.28923529 L95.1824225,7.39088235 C96.0771549,6.15629412 97.2867606,5 99.417662,5 C101.417042,5 102.810648,5.97188235 103.547296,7.44329412 C104.678507,5.97188235 106.151803,5 108.255493,5" id="Fill-15" fill="#FFFFFF" mask="url(#mask-2)"></path>
                        <path d="M127.284563,11.2531765 C127.074,9.20394118 125.864394,7.60117647 123.760056,7.60117647 C121.813803,7.60117647 120.445465,9.09847059 120.155859,11.2531765 L127.284563,11.2531765 Z M124.180535,16.8748235 C125.732225,16.8748235 126.837521,16.297 127.942817,15.2196471 L129.80938,16.8748235 C128.494169,18.4510588 126.678789,19.4753529 124.128056,19.4753529 C120.10338,19.4753529 117,16.5590588 117,12.2509412 C117,8.25794118 119.814423,5 123.78662,5 C128.205211,5 130.44107,8.46823529 130.44107,12.4871176 C130.44107,12.7763529 130.415155,13.0390588 130.388592,13.3548235 L120.182423,13.3548235 C120.550423,15.6137059 122.129324,16.8748235 124.180535,16.8748235 L124.180535,16.8748235 Z" id="Fill-16" fill="#FFFFFF" mask="url(#mask-2)"></path>
                        <polygon id="Fill-17" fill="#FFFFFF" mask="url(#mask-2)" points="89.1740563 32.1688235 89.1740563 26.1828824 86.5902817 30.0995294 86.5371549 30.0995294 83.9792958 26.2223529 83.9792958 32.1688235 82 32.1688235 82 23 84.1769014 23 86.5902817 26.8771765 89.0030141 23 91.1805634 23 91.1805634 32.1688235"></polygon>
                        <polygon id="Fill-18" fill="#FFFFFF" mask="url(#mask-2)" points="95 32.1688235 95 23 101.92462 23 101.92462 24.7949412 97.006507 24.7949412 97.006507 26.6545882 101.335042 26.6545882 101.335042 28.4488824 97.006507 28.4488824 97.006507 30.3745294 101.991352 30.3745294 101.991352 32.1688235"></polygon>
                        <path d="M111.347352,27.5844118 C111.347352,25.9602941 110.232338,24.8208235 108.580225,24.8208235 L107.020113,24.8208235 L107.020113,30.348 L108.580225,30.348 C110.232338,30.348 111.347352,29.2350588 111.347352,27.6102941 L111.347352,27.5844118 Z M108.580225,32.1688235 L105,32.1688235 L105,23 L108.580225,23 C111.465268,23 113.459465,24.9774118 113.459465,27.5585294 L113.459465,27.5844118 C113.459465,30.1648824 111.465268,32.1688235 108.580225,32.1688235 L108.580225,32.1688235 Z" id="Fill-19" fill="#FFFFFF" mask="url(#mask-2)"></path>
                        <polygon id="Fill-20" fill="#FFFFFF" mask="url(#mask-2)" points="116 32.1688235 118.019465 32.1688235 118.019465 23 116 23"></polygon>
                        <path d="M124.83907,25.4232353 L123.619099,28.3964706 L126.059042,28.3964706 L124.83907,25.4232353 Z M127.619803,32.2341765 L126.780141,30.1778235 L122.897352,30.1778235 L122.058986,32.2341765 L120,32.2341765 L123.93462,23 L125.796648,23 L129.731915,32.2341765 L127.619803,32.2341765 Z" id="Fill-21" fill="#FFFFFF" mask="url(#mask-2)"></path>
                        <polygon id="Fill-22" fill="#FFFFFF" mask="url(#mask-2)" points="132.946563 5.63023529 132 5.63023529 132 5 134.577296 5 134.577296 5.63023529 133.63138 5.63023529 133.63138 8.10652941 132.946563 8.10652941"></polygon>
                        <polygon id="Fill-23" fill="#FFFFFF" mask="url(#mask-2)" points="135 5 135.737944 5 136.55493 6.31352941 137.372563 5 138.110507 5 138.110507 8.10588235 137.430873 8.10588235 137.430873 6.07864706 136.55493 7.40511765 136.537437 7.40511765 135.671211 6.09158824 135.671211 8.10588235 135 8.10588235"></polygon>
                    </g>
                </g>
                <g id="B-logo" transform="translate(145.000000, 0.000000)" fill="#FFFFFF">
                    <g id="Group-2">
                        <path d="M24,54 C10.745166,54 0,43.254834 0,30 C0,16.745166 10.745166,6 24,6 C37.254834,6 48,16.745166 48,30 C48,43.254834 37.254834,54 24,54 Z M24,46 C32.836556,46 40,38.836556 40,30 C40,21.163444 32.836556,14 24,14 C15.163444,14 8,21.163444 8,30 C8,38.836556 15.163444,46 24,46 Z" id="Combined-Shape"></path>
                        <rect id="Rectangle-11" x="16" y="22" width="7" height="17" rx="1"></rect>
                        <rect id="Rectangle-11" x="0" y="0" width="7" height="32" rx="1"></rect>
                        <rect id="Rectangle-11-Copy" x="26" y="22" width="7" height="17" rx="1"></rect>
                    </g>
                </g>
            </g>
        </g>
    </g>
</svg>