<?xml version="1.0" encoding="UTF-8"?>
<svg width="20px" height="28px" viewBox="0 0 20 28" version="1.1" xmlns="http://www.w3.org/2000/svg" xmlns:xlink="http://www.w3.org/1999/xlink">
    <!-- Generator: Sketch 44.1 (41455) - http://www.bohemiancoding.com/sketch -->
    <title>Fill 125</title>
    <desc>Created with Sketch.</desc>
    <defs></defs>
    <g id="Wireframes" stroke="none" stroke-width="1" fill="none" fill-rule="evenodd">
        <g id="How-it-works" transform="translate(-217.000000, -896.000000)" fill="#9B9B9B">
            <g id="User-Journey" transform="translate(185.000000, 868.000000)">
                <g id="1">
                    <path d="M38,53 C38,53.553 37.553,54 37,54 L35,54 C34.447,54 34,53.553 34,53 L34,31 C34,30.448 34.447,30 35,30 L37,30 C37.553,30 38,30.448 38,31 L38,53 L38,53 Z M38,28 L34,28 C32.896,28 32,28.896 32,30 L32,54 C32,55.104 32.896,56 34,56 L38,56 C39.104,56 40,55.104 40,54 L40,30 C40,28.896 39.104,28 38,28 L38,28 Z M50,53 C50,53.553 49.553,54 49,54 L47,54 C46.447,54 46,53.553 46,53 L46,31 C46,30.448 46.447,30 47,30 L49,30 C49.553,30 50,30.448 50,31 L50,53 L50,53 Z M50,28 L46,28 C44.896,28 44,28.896 44,30 L44,54 C44,55.104 44.896,56 46,56 L50,56 C51.104,56 52,55.104 52,54 L52,30 C52,28.896 51.104,28 50,28 L50,28 Z" id="Fill-125"></path>
                </g>
            </g>
        </g>
    </g>
</svg>