<?xml version="1.0" encoding="UTF-8"?>
<svg width="32px" height="32px" viewBox="0 0 32 32" version="1.1" xmlns="http://www.w3.org/2000/svg" xmlns:xlink="http://www.w3.org/1999/xlink">
    <!-- Generator: Sketch 44.1 (41455) - http://www.bohemiancoding.com/sketch -->
    <title>Fill 92</title>
    <desc>Created with Sketch.</desc>
    <defs></defs>
    <g id="Wireframes" stroke="none" stroke-width="1" fill="none" fill-rule="evenodd">
        <g id="How-it-works" transform="translate(-211.000000, -1136.000000)" fill="#9B9B9B">
            <g id="User-Journey" transform="translate(185.000000, 868.000000)">
                <g id="2" transform="translate(0.000000, 242.000000)">
                    <path d="M55,36 L29,36 C28.448,36 28,35.553 28,35 C28,34.448 28.448,34 29,34 L55,34 C55.552,34 56,34.448 56,35 C56,35.553 55.552,36 55,36 L55,36 Z M43,38 L54,38 L54,46 L43,46 L43,38 Z M54,54 C54,55.104 53.104,56 52,56 L43,56 L43,48 L54,48 L54,54 L54,54 Z M30,38 L41,38 L41,46 L30,46 L30,38 Z M41,56 L32,56 C30.896,56 30,55.104 30,54 L30,48 L41,48 L41,56 L41,56 Z M39,28 C40.104,28 41,28.896 41,30 C41,31.104 40.104,32 39,32 C37.896,32 37,31.104 37,30 C37,28.896 37.896,28 39,28 L39,28 Z M45,28 C46.104,28 47,28.896 47,30 C47,31.104 46.104,32 45,32 C43.896,32 43,31.104 43,30 C43,28.896 43.896,28 45,28 L45,28 Z M56,32 L48.445,32 C48.789,31.41 49,30.732 49,30 C49,27.791 47.209,26 45,26 C43.798,26 42.733,26.541 42,27.38 C41.267,26.541 40.202,26 39,26 C36.791,26 35,27.791 35,30 C35,30.732 35.211,31.41 35.555,32 L28,32 C26.896,32 26,32.896 26,34 L26,36 C26,37.104 26.896,38 28,38 L28,54 C28,56.209 29.791,58 32,58 L52,58 C54.209,58 56,56.209 56,54 L56,38 C57.104,38 58,37.104 58,36 L58,34 C58,32.896 57.104,32 56,32 L56,32 Z" id="Fill-92"></path>
                </g>
            </g>
        </g>
    </g>
</svg>